<svg width="140" height="73" viewBox="0 0 140 73" fill="none" xmlns="http://www.w3.org/2000/svg">
<g filter="url(#filter0_dd_1762_2128)">
<path d="M32.8518 7.08959L37.3171 16.023C37.886 17.161 37.0587 18.5 35.7867 18.5H32.8518M32.8518 7.08959L31.5304 4.44613C30.8999 3.18462 29.1001 3.18462 28.4696 4.44613L22.6828 16.023C22.114 17.161 22.9413 18.5 24.2133 18.5H27.1482M32.8518 7.08959L30 9.9422M27.1482 18.5H32.8518M27.1482 18.5L24.2965 15.6474M32.8518 18.5L27.1482 12.7948M30 9.9422L37.272 17.2163M30 9.9422L27.1482 12.7948M22.728 17.2163L24.2965 15.6474M24.2965 15.6474L27.1482 12.7948" stroke="#B6F09C" stroke-width="1.5" stroke-linecap="round" stroke-linejoin="round"/>
</g>
<path d="M52.2825 17L55.9505 6.57H57.9945L61.6625 17H59.8985L59.1005 14.662H54.8585L54.0465 17H52.2825ZM55.3345 13.192H58.5965L56.7485 7.732H57.2105L55.3345 13.192ZM62.8959 17V9.426H64.4079V10.952L64.2679 10.728C64.4359 10.2333 64.7065 9.87867 65.0799 9.664C65.4532 9.44 65.9012 9.328 66.4239 9.328H66.8859V10.77H66.2279C65.7052 10.77 65.2805 10.9333 64.9539 11.26C64.6365 11.5773 64.4779 12.0347 64.4779 12.632V17H62.8959ZM71.5309 17.084C70.7375 17.084 70.1215 16.86 69.6829 16.412C69.2442 15.964 69.0249 15.334 69.0249 14.522V10.854H67.6949V9.426H67.9049C68.2595 9.426 68.5349 9.32333 68.7309 9.118C68.9269 8.91267 69.0249 8.63267 69.0249 8.278V7.69H70.6069V9.426H72.3289V10.854H70.6069V14.452C70.6069 14.7133 70.6489 14.9373 70.7329 15.124C70.8169 15.3013 70.9522 15.4413 71.1389 15.544C71.3255 15.6373 71.5682 15.684 71.8669 15.684C71.9415 15.684 72.0255 15.6793 72.1189 15.67C72.2122 15.6607 72.3009 15.6513 72.3849 15.642V17C72.2542 17.0187 72.1095 17.0373 71.9509 17.056C71.7922 17.0747 71.6522 17.084 71.5309 17.084ZM74.0787 17V9.426H75.6607V17H74.0787ZM74.0787 8.39V6.57H75.6607V8.39H74.0787ZM78.5143 17V10.854H77.1143V9.426H78.5143V9.034C78.5143 8.46467 78.631 7.98867 78.8643 7.606C79.0977 7.214 79.4197 6.91533 79.8303 6.71C80.2503 6.50467 80.731 6.402 81.2723 6.402C81.375 6.402 81.4917 6.41133 81.6223 6.43C81.753 6.43933 81.8603 6.45333 81.9443 6.472V7.844C81.8697 7.82533 81.7857 7.816 81.6923 7.816C81.599 7.80667 81.5243 7.802 81.4683 7.802C81.0483 7.802 80.7123 7.9 80.4603 8.096C80.2083 8.28267 80.0823 8.59533 80.0823 9.034V9.426H83.7083V10.854H80.0823V17H78.5143ZM82.9663 17V9.426H84.5343V17H82.9663ZM89.9533 17.168C89.1973 17.168 88.5253 16.9953 87.9373 16.65C87.3586 16.2953 86.8966 15.8193 86.5513 15.222C86.2153 14.6247 86.0473 13.948 86.0473 13.192C86.0473 12.4453 86.2153 11.7733 86.5513 11.176C86.8873 10.5787 87.3493 10.112 87.9373 9.776C88.5253 9.43067 89.1973 9.258 89.9533 9.258C90.4666 9.258 90.9473 9.35133 91.3953 9.538C91.8433 9.71533 92.2306 9.96267 92.5573 10.28C92.8933 10.5973 93.1406 10.966 93.2993 11.386L91.9133 12.03C91.7546 11.638 91.4979 11.3253 91.1433 11.092C90.7979 10.8493 90.4013 10.728 89.9533 10.728C89.5239 10.728 89.1366 10.8353 88.7913 11.05C88.4553 11.2553 88.1893 11.5493 87.9933 11.932C87.7973 12.3053 87.6993 12.73 87.6993 13.206C87.6993 13.682 87.7973 14.1113 87.9933 14.494C88.1893 14.8673 88.4553 15.1613 88.7913 15.376C89.1366 15.5907 89.5239 15.698 89.9533 15.698C90.4106 15.698 90.8073 15.5813 91.1433 15.348C91.4886 15.1053 91.7453 14.7833 91.9133 14.382L93.2993 15.04C93.1499 15.4413 92.9073 15.8053 92.5713 16.132C92.2446 16.4493 91.8573 16.7013 91.4093 16.888C90.9613 17.0747 90.4759 17.168 89.9533 17.168ZM94.9955 17V9.426H96.5775V17H94.9955ZM94.9955 8.39V6.57H96.5775V8.39H94.9955ZM101.279 17.168C100.71 17.168 100.21 17.042 99.7811 16.79C99.3518 16.5287 99.0158 16.1693 98.7731 15.712C98.5398 15.2453 98.4231 14.7087 98.4231 14.102V9.426H100.005V13.962C100.005 14.3073 100.075 14.6107 100.215 14.872C100.355 15.1333 100.551 15.3387 100.803 15.488C101.055 15.628 101.344 15.698 101.671 15.698C102.007 15.698 102.301 15.6233 102.553 15.474C102.805 15.3247 103.001 15.1147 103.141 14.844C103.29 14.5733 103.365 14.256 103.365 13.892V9.426H104.933V17H103.435V15.516L103.603 15.712C103.426 16.1787 103.132 16.538 102.721 16.79C102.31 17.042 101.83 17.168 101.279 17.168ZM106.93 17V9.426H108.442V11.064L108.246 10.812C108.405 10.2987 108.694 9.91133 109.114 9.65C109.534 9.38867 110.015 9.258 110.556 9.258C111.163 9.258 111.7 9.42133 112.166 9.748C112.642 10.0653 112.96 10.49 113.118 11.022L112.67 11.064C112.894 10.4573 113.235 10.0047 113.692 9.706C114.159 9.40733 114.691 9.258 115.288 9.258C115.811 9.258 116.282 9.37933 116.702 9.622C117.132 9.86467 117.472 10.2007 117.724 10.63C117.976 11.0593 118.102 11.5493 118.102 12.1V17H116.52V12.534C116.52 12.1513 116.45 11.8293 116.31 11.568C116.18 11.2973 115.993 11.092 115.75 10.952C115.517 10.8027 115.242 10.728 114.924 10.728C114.607 10.728 114.327 10.8027 114.084 10.952C113.842 11.092 113.65 11.2973 113.51 11.568C113.37 11.8387 113.3 12.1607 113.3 12.534V17H111.732V12.534C111.732 12.1513 111.662 11.8293 111.522 11.568C111.392 11.2973 111.205 11.092 110.962 10.952C110.729 10.8027 110.449 10.728 110.122 10.728C109.805 10.728 109.525 10.8027 109.282 10.952C109.04 11.092 108.848 11.2973 108.708 11.568C108.578 11.8387 108.512 12.1607 108.512 12.534V17H106.93Z" fill="#E8E9E9"/>
<g filter="url(#filter1_dd_1762_2128)">
<path d="M12 51C12 48.7909 13.7909 47 16 47H124C126.209 47 128 48.7909 128 51H12Z" fill="#B6F09C"/>
</g>
<defs>
<filter id="filter0_dd_1762_2128" x="8" y="-1" width="44" height="44" filterUnits="userSpaceOnUse" color-interpolation-filters="sRGB">
<feFlood flood-opacity="0" result="BackgroundImageFix"/>
<feColorMatrix in="SourceAlpha" type="matrix" values="0 0 0 0 0 0 0 0 0 0 0 0 0 0 0 0 0 0 127 0" result="hardAlpha"/>
<feMorphology radius="4" operator="erode" in="SourceAlpha" result="effect1_dropShadow_1762_2128"/>
<feOffset dy="4"/>
<feGaussianBlur stdDeviation="3"/>
<feColorMatrix type="matrix" values="0 0 0 0 0.713726 0 0 0 0 0.941176 0 0 0 0 0.611765 0 0 0 0.16 0"/>
<feBlend mode="normal" in2="BackgroundImageFix" result="effect1_dropShadow_1762_2128"/>
<feColorMatrix in="SourceAlpha" type="matrix" values="0 0 0 0 0 0 0 0 0 0 0 0 0 0 0 0 0 0 127 0" result="hardAlpha"/>
<feMorphology radius="3" operator="erode" in="SourceAlpha" result="effect2_dropShadow_1762_2128"/>
<feOffset dy="10"/>
<feGaussianBlur stdDeviation="7.5"/>
<feColorMatrix type="matrix" values="0 0 0 0 0.713726 0 0 0 0 0.941176 0 0 0 0 0.611765 0 0 0 0.16 0"/>
<feBlend mode="normal" in2="effect1_dropShadow_1762_2128" result="effect2_dropShadow_1762_2128"/>
<feBlend mode="normal" in="SourceGraphic" in2="effect2_dropShadow_1762_2128" result="shape"/>
</filter>
<filter id="filter1_dd_1762_2128" x="0" y="45" width="140" height="28" filterUnits="userSpaceOnUse" color-interpolation-filters="sRGB">
<feFlood flood-opacity="0" result="BackgroundImageFix"/>
<feColorMatrix in="SourceAlpha" type="matrix" values="0 0 0 0 0 0 0 0 0 0 0 0 0 0 0 0 0 0 127 0" result="hardAlpha"/>
<feMorphology radius="4" operator="erode" in="SourceAlpha" result="effect1_dropShadow_1762_2128"/>
<feOffset dy="4"/>
<feGaussianBlur stdDeviation="3"/>
<feColorMatrix type="matrix" values="0 0 0 0 0.713726 0 0 0 0 0.941176 0 0 0 0 0.611765 0 0 0 0.16 0"/>
<feBlend mode="normal" in2="BackgroundImageFix" result="effect1_dropShadow_1762_2128"/>
<feColorMatrix in="SourceAlpha" type="matrix" values="0 0 0 0 0 0 0 0 0 0 0 0 0 0 0 0 0 0 127 0" result="hardAlpha"/>
<feMorphology radius="3" operator="erode" in="SourceAlpha" result="effect2_dropShadow_1762_2128"/>
<feOffset dy="10"/>
<feGaussianBlur stdDeviation="7.5"/>
<feColorMatrix type="matrix" values="0 0 0 0 0.713726 0 0 0 0 0.941176 0 0 0 0 0.611765 0 0 0 0.16 0"/>
<feBlend mode="normal" in2="effect1_dropShadow_1762_2128" result="effect2_dropShadow_1762_2128"/>
<feBlend mode="normal" in="SourceGraphic" in2="effect2_dropShadow_1762_2128" result="shape"/>
</filter>
</defs>
</svg>
